<svg width="228" height="228" viewBox="0 0 228 228" fill="none" xmlns="http://www.w3.org/2000/svg">
<path fill-rule="evenodd" clip-rule="evenodd" d="M22.1915 181.024C15.726 172.28 10.4857 162.574 6.72423 152.161L73.5444 219.889C63.1867 215.987 53.5495 210.615 44.8872 204.028L22.1915 181.024ZM93.3434 225.347C87.2955 224.26 81.4139 222.694 75.7392 220.689L5.95347 149.956C4.0275 144.258 2.54145 138.357 1.53574 132.293L93.3434 225.347ZM28.7366 189.082C31.3209 191.983 34.0518 194.751 36.9178 197.374L28.7366 189.082ZM0.0118201 115.226C0.086313 120.443 0.512506 125.574 1.26774 130.598L95.0351 225.638C100.049 226.461 105.174 226.956 110.387 227.099L0.0118201 115.226ZM111.821 227.13C112.404 227.139 112.987 227.143 113.572 227.143C117.205 227.143 120.799 226.973 124.346 226.639L0.658275 101.272C0.223201 105.312 1.0292e-05 109.416 9.92874e-06 113.572L0.000223533 113.791L111.821 227.13ZM136.892 224.746C133.199 225.517 129.44 226.109 125.625 226.511L0.803081 99.9953C1.25677 96.1867 1.89894 92.436 2.71998 88.7527L136.892 224.746ZM5.89474 77.361C4.77031 80.706 3.79736 84.1206 2.98407 87.5966L138.052 224.498C141.54 223.732 144.967 222.805 148.327 221.727L5.89474 77.361ZM149.389 221.38C152.822 220.24 156.183 218.94 159.461 217.49L10.2817 66.2855C8.78718 69.5448 7.44235 72.8871 6.25607 76.3035L149.389 221.38ZM209.08 175.051C210.809 172.37 212.429 169.612 213.932 166.783L61.7172 12.5021C58.8675 13.9671 56.0878 15.5491 53.3844 17.2417L209.08 175.051ZM208.522 175.909L52.5194 17.7887C49.6936 19.5937 46.9529 21.5203 44.3048 23.5611L202.639 184.045C204.716 181.424 206.679 178.71 208.522 175.909ZM218.588 156.893C217.326 159.95 215.934 162.939 214.42 165.854L62.6527 12.0266C65.5878 10.5519 68.5956 9.20081 71.6694 7.98L218.588 156.893ZM222.402 146.149C221.412 149.461 220.275 152.709 218.999 155.886L72.6826 7.58324C75.8761 6.35039 79.1394 5.25771 82.4648 4.31276L222.402 146.149ZM227.043 118.385C227.11 116.789 227.143 115.184 227.143 113.572C227.143 110.68 227.035 107.814 226.823 104.977L123.691 0.444724C120.357 0.150366 116.982 5.14046e-05 113.572 5.11064e-05C112.474 5.10104e-05 111.38 0.0156301 110.289 0.0465749L227.043 118.385ZM226.978 119.743L108.93 0.0931598C104.63 0.266011 100.392 0.677952 96.2273 1.31607L225.585 132.43C226.279 128.273 226.748 124.04 226.978 119.743ZM224.181 87.6893C225.374 92.81 226.221 98.0637 226.696 103.424L125.241 0.592261C130.593 1.13854 135.835 2.05645 140.941 3.31977L224.181 87.6893ZM216.311 65.1038C219.42 71.6815 221.915 78.6056 223.724 85.8025L142.822 3.80233C149.992 5.70805 156.884 8.29765 163.422 11.497L216.311 65.1038ZM214.927 62.2769C204.234 41.1896 187.153 23.8887 166.231 12.9201L214.927 62.2769ZM225.375 133.641L95.0129 1.50891C91.1275 2.14754 87.3085 2.98334 83.5666 4.00572L222.724 145.052C223.797 141.323 224.684 137.516 225.375 133.641ZM202.01 184.831L43.51 24.1793C40.7361 26.3564 38.066 28.6598 35.5085 31.0809L195.002 192.74C197.458 190.214 199.797 187.576 202.01 184.831ZM28.3794 38.4643C30.4236 36.1474 32.5608 33.9145 34.7853 31.7716L194.302 193.454C192.129 195.649 189.868 197.756 187.524 199.769L28.3794 38.4643ZM186.76 200.419L27.7194 39.219C25.6842 41.567 23.7436 43.9993 21.9038 46.51L179.392 206.136C181.928 204.33 184.386 202.422 186.76 200.419ZM178.564 206.721L21.3083 47.3302C19.4676 49.8894 17.7308 52.5283 16.104 55.2407L170.584 211.818C173.319 210.228 175.981 208.526 178.564 206.721ZM10.7312 65.3174C12.209 62.1733 13.8268 59.1081 15.5764 56.1296L169.688 212.333C166.687 214.042 163.6 215.619 160.436 217.054L10.7312 65.3174Z" fill="url(#paint0_linear_33_69)" fill-opacity="0.4"/>
<defs>
<linearGradient id="paint0_linear_33_69" x1="55.7896" y1="29.8874" x2="193.271" y2="205.226" gradientUnits="userSpaceOnUse">
<stop offset="0.25" stop-color="#DC6639"/>
<stop offset="0.489583" stop-color="#5F4C87"/>
<stop offset="1" stop-color="#4B4B4B"/>
</linearGradient>
</defs>
</svg>
